<?xml version="1.0" encoding="UTF-8" standalone="no"?>
<!-- Generator: Adobe Illustrator 16.0.0, SVG Export Plug-In . SVG Version: 6.00 Build 0)  -->

<svg

   xmlns="http://www.w3.org/2000/svg"
   
   version="1.1"
   id="Capa_1"
   x="0px"
   y="0px"
   width="32"
   height="32"
   viewBox="0 0 32 32"
   xml:space="preserve">
   

<g
   id="g6"
   transform="translate(0,-412.819)">
</g>
<g
   id="g8"
   transform="translate(0,-412.819)">
</g>
<g
   id="g10"
   transform="translate(0,-412.819)">
</g>
<g
   id="g12"
   transform="translate(0,-412.819)">
</g>
<g
   id="g14"
   transform="translate(0,-412.819)">
</g>
<g
   id="g16"
   transform="translate(0,-412.819)">
</g>
<g
   id="g18"
   transform="translate(0,-412.819)">
</g>
<g
   id="g20"
   transform="translate(0,-412.819)">
</g>
<g
   id="g22"
   transform="translate(0,-412.819)">
</g>
<g
   id="g24"
   transform="translate(0,-412.819)">
</g>
<g
   id="g26"
   transform="translate(0,-412.819)">
</g>
<g
   id="g28"
   transform="translate(0,-412.819)">
</g>
<g
   id="g30"
   transform="translate(0,-412.819)">
</g>
<g
   id="g32"
   transform="translate(0,-412.819)">
</g>
<g
   id="g34"
   transform="translate(0,-412.819)">
</g>
<g
   transform="matrix(0.10528976,0,0,0.10528976,0.99999959,0.99994699)"
   id="g901"><path
     d="M 282.082,195.285 149.028,62.24 c -1.901,-1.903 -4.088,-2.856 -6.562,-2.856 -2.474,0 -4.665,0.953 -6.567,2.856 L 2.856,195.285 C 0.95,197.191 0,199.378 0,201.853 c 0,2.474 0.953,4.664 2.856,6.566 l 14.272,14.271 c 1.903,1.903 4.093,2.854 6.567,2.854 2.474,0 4.664,-0.951 6.567,-2.854 L 142.466,110.488 254.674,222.697 c 1.902,1.903 4.093,2.848 6.563,2.848 2.478,0 4.668,-0.951 6.57,-2.848 l 14.274,-14.277 c 1.902,-1.902 2.847,-4.093 2.847,-6.566 10e-4,-2.476 -0.944,-4.666 -2.846,-6.569 z"
     id="path899"
     style="fill:#000000" /></g></svg>