<?xml version="1.0" encoding="UTF-8" standalone="no"?>
<svg
   xmlns="http://www.w3.org/2000/svg"
   width="32"
   height="32"
   viewBox="0 0 32 32"
   fill="none"
   version="1.1"
   id="svg920">
  <path
     style="fill:#000000"
     d="m 4,7 h 24 c 0.554,0 1,0.446 1,1 0,0.554 -0.446,1 -1,1 H 4 C 3.446,9 3,8.554 3,8 3,7.446 3.446,7 4,7 Z"
     id="rect914" />
  <path
     style="fill:#000000"
     d="m 4,15 h 24 c 0.554,0 1,0.446 1,1 0,0.554 -0.446,1 -1,1 H 4 C 3.446,17 3,16.554 3,16 3,15.446 3.446,15 4,15 Z"
     id="rect916" />
  <path
     style="fill:#000000"
     d="m 4,24 h 24 c 0.554,0 1,0.446 1,1 0,0.554 -0.446,1 -1,1 H 4 C 3.446,26 3,25.554 3,25 3,24.446 3.446,24 4,24 Z"
     id="rect918" />
</svg>
